 <svg  version="1.0" xmlns="http://www.w3.org/2000/svg"  width="900.000000pt" height="861.000000pt" viewBox="0 0 900.000000 861.000000"  preserveAspectRatio="xMidYMid meet">  <g transform="translate(0.000000,861.000000) scale(0.100000,-0.100000)" fill="#000000" stroke="none"> <path d="M6030 8432 c-36 -10 -75 -23 -87 -30 -12 -6 -31 -12 -43 -12 -11 0 -35 -8 -53 -17 -24 -12 -67 -18 -177 -21 -80 -2 -153 -9 -163 -14 -46 -24 -44 -126 2 -175 53 -56 61 -77 61 -167 0 -60 5 -93 17 -113 20 -35 11 -83 -17 -90 -27 -7 -91 -107 -97 -152 -6 -44 9 -79 40 -90 18 -7 22 -17 24 -52 4 -81 21 -254 28 -279 12 -43 52 -65 117 -63 50 1 79 11 138 44 37 22 44 22 62 0 16 -20 18 -42 18 -166 0 -163 -14 -223 -63 -277 -69 -75 -133 -185 -162 -275 -15 -47 -24 -57 -113 -124 -112 -83 -132 -102 -158 -147 -10 -18 -38 -44 -60 -57 -39 -23 -104 -92 -104 -111 0 -4 -6 -15 -14 -23 -8 -9 -30 -46 -48 -82 -20 -40 -63 -98 -107 -145 l-74 -79 -54 2 c-70 2 -179 -46 -243 -107 -40 -38 -50 -43 -86 -41 -43 2 -114 -32 -178 -86 -23 -19 -36 -23 -60 -18 -88 19 -125 17 -193 -9 -38 -14 -82 -29 -100 -32 -18 -3 -45 -19 -60 -35 -31 -31 -73 -38 -93 -14 -7 8 -17 15 -23 15 -6 0 -19 8 -29 17 -26 24 -120 24 -146 0 -10 -9 -24 -17 -31 -17 -7 0 -24 -9 -38 -20 -17 -13 -34 -18 -49 -14 -33 9 -89 -47 -80 -80 8 -31 1 -32 -170 -26 l-141 5 -116 108 -116 108 -386 -1 c-253 0 -392 3 -405 10 -20 10 -20 24 -20 623 0 464 3 616 12 625 16 16 83 15 97 -1 7 -9 12 -120 13 -343 l3 -329 164 -3 c112 -2 168 1 177 9 12 10 14 159 14 925 l0 913 -22 15 c-29 21 -294 23 -321 4 -15 -12 -17 -48 -19 -368 l-3 -355 -264 -3 c-175 -1 -269 -6 -278 -13 -18 -15 -19 -409 -1 -427 7 -7 40 -12 78 -12 38 0 71 -5 78 -12 9 -9 12 -143 12 -541 l0 -529 -27 -23 c-53 -45 -229 -182 -370 -288 l-142 -107 -166 0 c-96 0 -175 -4 -186 -10 -16 -9 -19 -22 -19 -84 0 -58 -3 -75 -16 -80 -9 -3 -197 -6 -419 -6 -389 0 -405 -1 -415 -19 -6 -12 -10 -114 -10 -263 0 -204 3 -247 16 -266 l15 -22 425 0 c233 0 424 -3 424 -7 4 -321 -1 -938 -7 -944 -5 -5 -150 -10 -323 -11 l-315 -3 -5 -1560 -5 -1560 -100 -3 c-123 -3 -135 -11 -135 -91 0 -31 5 -63 10 -71 8 -13 290 -15 2425 -18 2406 -2 2415 -2 2435 18 25 25 28 105 4 138 -15 22 -15 22 -352 22 -185 0 -343 4 -350 8 -10 7 -12 418 -12 2036 0 1115 2 2032 6 2037 3 5 152 9 349 9 l345 0 15 24 c14 21 16 62 14 283 l-2 258 44 6 c42 5 81 16 159 44 19 8 60 21 90 30 30 9 62 22 70 29 8 7 35 21 60 32 25 10 65 30 90 43 24 14 61 26 81 26 43 1 95 39 206 152 57 58 74 82 79 112 6 39 41 74 48 49 2 -7 11 -38 20 -69 9 -31 16 -65 16 -76 0 -11 6 -43 14 -69 8 -27 22 -78 31 -114 46 -180 93 -322 139 -424 51 -114 70 -182 86 -311 4 -34 12 -70 18 -82 7 -12 12 -31 12 -42 0 -27 35 -93 63 -118 29 -26 132 -83 151 -83 8 0 25 -12 38 -27 29 -35 102 -93 117 -93 19 0 32 -37 22 -63 -15 -39 -70 -87 -99 -87 -15 -1 -38 -7 -52 -15 -14 -8 -35 -14 -46 -15 -47 0 -234 -73 -274 -105 -17 -14 -41 -20 -170 -40 -196 -30 -280 -52 -372 -97 -31 -15 -59 -28 -62 -28 -13 0 -182 -108 -207 -132 -15 -15 -39 -52 -53 -81 -14 -28 -35 -65 -45 -82 -11 -16 -37 -61 -57 -100 -37 -68 -38 -73 -37 -170 0 -82 5 -113 27 -175 15 -41 31 -91 35 -110 4 -19 13 -45 19 -57 7 -13 9 -39 6 -67 -6 -40 -2 -55 34 -123 79 -155 109 -209 153 -281 24 -40 49 -81 54 -90 6 -10 33 -49 61 -87 28 -39 71 -103 95 -143 24 -40 51 -84 59 -97 62 -96 90 -145 90 -158 0 -23 90 -204 210 -422 83 -152 79 -134 49 -208 -12 -29 -28 -70 -36 -92 -34 -92 -59 -127 -128 -182 -38 -31 -79 -67 -91 -80 -14 -17 -37 -27 -75 -33 -102 -15 -223 -66 -271 -114 -65 -65 -81 -107 -81 -208 0 -101 14 -128 68 -128 17 0 40 -7 51 -15 27 -21 509 -22 539 -1 11 7 40 17 65 21 25 4 67 18 94 31 47 23 48 24 42 4 -3 -11 -8 -28 -11 -37 -3 -10 4 -29 14 -43 l20 -25 223 3 223 3 27 26 c25 24 28 33 28 97 0 39 7 103 15 141 19 91 19 184 -1 252 -10 35 -14 70 -10 96 20 127 19 134 -22 237 -6 14 -18 54 -28 90 -10 36 -30 92 -46 126 -15 34 -28 68 -28 76 0 9 -13 46 -29 84 -27 64 -34 92 -62 229 -6 28 -15 138 -20 245 -9 165 -8 206 5 265 32 144 45 211 52 255 10 73 18 80 77 80 50 -1 128 -16 192 -39 17 -6 41 -13 55 -15 14 -3 77 -36 141 -74 116 -70 154 -83 284 -102 39 -5 92 -14 120 -20 27 -6 71 -9 98 -9 26 1 53 -3 60 -10 16 -16 23 -1678 8 -1701 -9 -12 -44 -15 -207 -15 l-197 -1 -74 -63 c-109 -93 -137 -165 -74 -194 20 -10 169 -11 686 -7 656 6 660 6 707 29 52 24 73 51 63 81 -9 27 -87 94 -148 126 -51 27 -55 27 -247 28 l-195 1 0 870 0 870 45 -3 c77 -4 403 25 440 39 19 8 44 21 55 29 25 19 85 94 85 108 0 5 7 15 15 22 8 7 15 20 15 30 0 9 16 32 36 51 98 93 113 112 119 153 11 71 -23 123 -102 157 -36 15 -58 18 -114 13 -78 -8 -75 -10 -82 76 l-4 54 51 48 c28 26 58 48 66 48 20 1 54 30 70 59 10 19 10 31 -1 63 -10 31 -10 68 2 201 18 203 18 668 1 797 -9 73 -10 136 -2 270 6 96 15 382 20 635 5 253 13 595 19 760 6 174 7 315 2 335 -5 19 -12 83 -15 141 -6 99 -9 112 -44 175 -34 63 -43 72 -102 101 -59 29 -74 32 -156 33 -111 0 -158 -18 -239 -91 -43 -40 -65 -72 -102 -148 -25 -53 -52 -123 -59 -156 -18 -77 -43 -421 -44 -595 0 -122 -9 -175 -25 -159 -3 4 -10 40 -15 80 -15 126 -27 181 -80 363 -11 37 -20 85 -20 105 0 38 -14 89 -50 181 -12 30 -25 67 -30 82 -10 33 -68 149 -81 162 -5 6 -9 18 -9 27 0 9 -7 22 -16 30 -12 10 -14 23 -9 56 l6 44 -83 80 c-46 45 -119 115 -164 155 -44 41 -107 110 -139 154 -45 61 -65 81 -89 86 -17 3 -39 13 -49 22 -20 18 -57 96 -57 121 0 21 -61 87 -88 95 -12 4 -26 16 -32 26 -5 10 -26 21 -47 25 -21 4 -58 23 -83 43 -76 61 -73 56 -56 109 8 27 20 68 27 93 24 95 51 177 85 259 18 44 15 130 -9 226 -20 80 -42 120 -80 147 -18 12 -49 41 -69 64 -43 48 -87 73 -173 98 -58 17 -91 28 -165 57 -55 21 -242 21 -320 1z m-206 -418 c9 -8 16 -30 16 -47 0 -32 28 -100 52 -127 35 -40 160 -71 204 -51 14 6 30 9 35 6 5 -3 8 -64 7 -134 -1 -117 1 -132 21 -165 13 -20 30 -36 39 -36 8 0 23 -6 31 -14 9 -7 39 -26 66 -42 48 -28 54 -29 185 -29 l135 0 7 -55 c12 -95 -12 -122 -140 -161 -37 -11 -173 -15 -212 -6 -14 3 -28 6 -32 6 -4 1 -24 26 -44 57 -21 31 -59 78 -86 106 -26 27 -48 51 -48 53 0 3 11 30 25 62 17 38 25 71 23 98 -3 39 -4 40 -43 42 -37 3 -43 -1 -71 -40 -16 -23 -40 -63 -53 -89 -30 -63 -97 -138 -124 -138 -12 0 -31 -7 -41 -15 -22 -17 -121 -21 -130 -6 -4 5 -9 29 -12 53 -5 40 -4 44 26 60 43 24 38 57 -13 81 -38 17 -38 18 -31 62 6 45 6 45 -30 60 -33 14 -35 18 -25 37 6 12 22 31 35 43 73 68 81 86 88 211 4 65 9 121 12 126 10 15 112 9 128 -8z m238 -782 c9 -20 36 -76 59 -124 23 -48 39 -94 36 -102 -7 -17 -82 -40 -97 -31 -6 3 -10 17 -10 30 0 14 -6 42 -14 62 -36 100 -40 121 -26 163 7 22 18 40 24 40 6 0 19 -17 28 -38z m886 -276 c30 -16 29 -15 139 -166 108 -147 169 -219 217 -256 55 -42 95 -95 102 -136 9 -58 27 -112 47 -141 21 -31 37 -28 37 8 0 13 4 26 9 29 17 11 18 44 3 75 -11 24 -12 35 -4 43 18 18 74 -50 94 -113 33 -110 48 -166 48 -184 0 -10 6 -41 14 -69 45 -160 60 -286 72 -580 6 -166 7 -170 35 -209 25 -34 29 -49 29 -104 0 -64 -15 -86 -25 -35 -3 15 -10 41 -16 57 -6 17 -14 45 -19 63 -4 18 -12 38 -18 45 -5 7 -12 28 -16 47 -4 19 -15 46 -25 60 -17 21 -21 22 -36 10 -18 -15 -18 -12 4 -155 4 -27 12 -68 18 -90 6 -22 19 -76 29 -120 9 -44 23 -87 30 -95 6 -8 21 -34 33 -57 16 -33 27 -43 46 -43 13 0 27 5 30 10 9 15 25 2 25 -20 0 -10 -13 -28 -29 -39 -34 -24 -33 -15 -51 -396 -6 -126 -17 -286 -25 -355 -8 -69 -13 -136 -12 -150 1 -17 -4 -26 -16 -28 -31 -6 -130 37 -172 74 -35 31 -58 44 -151 86 -21 10 -90 74 -126 117 -12 14 -30 21 -52 21 -39 0 -74 34 -124 122 -17 29 -54 80 -83 113 -28 32 -56 71 -61 86 -6 17 -40 50 -91 87 -45 33 -95 73 -110 89 -25 26 -26 31 -12 43 35 29 5 88 -64 123 -14 8 -51 26 -81 42 -77 40 -206 170 -208 210 -1 17 -3 39 -4 50 -5 33 18 23 51 -21 21 -30 43 -46 78 -59 26 -9 62 -22 78 -30 97 -41 114 -46 161 -43 42 3 49 6 52 25 3 17 -5 26 -30 37 -18 9 -49 25 -68 36 -19 11 -45 20 -57 20 -23 0 -45 17 -74 56 -8 10 -33 32 -57 48 -23 16 -58 46 -77 68 -33 36 -35 42 -29 86 5 43 3 53 -25 94 -17 25 -37 51 -46 58 -41 34 -3 52 52 25 24 -12 46 -13 109 -6 65 7 93 5 157 -11 58 -14 82 -16 97 -8 28 15 25 54 -5 74 -34 23 -31 37 15 66 36 22 50 47 34 63 -3 3 -27 -4 -52 -15 -48 -21 -146 -46 -217 -55 -33 -4 -56 2 -115 31 -94 45 -123 67 -118 92 5 29 32 28 86 -5 40 -25 60 -31 106 -31 91 0 162 47 168 110 3 35 3 35 63 41 33 3 77 13 99 23 78 35 167 155 150 201 -10 26 -33 24 -54 -5 -11 -16 -49 -51 -83 -77 -59 -45 -66 -48 -135 -51 -85 -5 -123 13 -53 24 54 9 74 39 41 64 l-22 17 61 54 c63 55 164 180 181 223 9 24 -3 46 -25 46 -6 0 -42 -32 -80 -70 -103 -104 -129 -89 -95 55 6 28 18 73 26 101 8 28 14 65 14 82 0 39 -32 74 -63 70 -19 -3 -23 -11 -27 -60 -3 -31 -8 -59 -11 -63 -7 -6 -34 77 -64 195 -10 36 -22 77 -27 92 -15 40 -3 50 48 42 49 -7 74 6 74 38 0 14 -5 18 -16 14 -23 -9 -64 4 -64 20 0 24 49 35 161 39 59 1 115 8 125 14 26 14 40 14 72 -3z m-718 -81 c7 -8 22 -15 34 -15 11 -1 48 -22 81 -49 47 -37 68 -63 93 -116 31 -63 33 -72 29 -149 -6 -101 -22 -206 -34 -216 -4 -4 -28 -15 -52 -24 -25 -10 -61 -30 -80 -45 -20 -14 -49 -33 -64 -41 -16 -8 -33 -23 -39 -35 -18 -32 -74 -95 -110 -121 -70 -52 -127 -116 -134 -149 -8 -45 -27 -60 -104 -86 -113 -37 -155 -61 -158 -91 -4 -32 27 -54 56 -40 18 10 82 -11 82 -27 0 -13 -110 -111 -139 -123 -117 -49 -122 -52 -119 -78 2 -19 10 -26 31 -28 15 -2 27 -6 27 -8 0 -15 -23 -44 -34 -44 -8 0 -19 -7 -26 -15 -7 -8 -27 -15 -45 -15 -58 0 -175 -66 -175 -99 0 -15 -60 -43 -80 -38 -10 3 -33 -4 -51 -15 -28 -17 -38 -18 -69 -9 -24 7 -54 8 -84 2 -55 -10 -157 8 -185 33 -39 35 -80 7 -63 -43 9 -26 8 -30 -11 -35 -42 -11 -71 -6 -136 26 -67 32 -155 43 -193 25 -22 -11 -50 42 -46 86 3 29 8 34 58 52 30 10 64 29 75 40 27 28 142 117 181 140 22 12 36 15 48 8 15 -8 12 -13 -24 -38 -44 -30 -60 -66 -40 -90 18 -22 37 -19 92 15 53 33 69 36 97 18 16 -10 25 -7 55 15 19 15 49 47 67 72 18 25 36 45 39 45 4 0 10 -13 14 -30 4 -23 11 -30 30 -30 13 0 26 7 30 15 3 9 19 15 41 15 45 0 53 18 33 81 -15 47 -15 48 10 85 14 20 31 58 39 83 7 24 21 56 31 70 9 14 19 31 22 36 3 6 23 37 45 70 39 59 72 116 116 203 20 39 52 72 71 72 11 0 10 -42 -1 -59 -5 -8 -7 -20 -4 -28 10 -25 41 -13 73 27 37 46 47 49 56 16 13 -54 64 -42 64 15 0 21 6 53 14 71 8 18 18 46 21 62 l6 29 28 -27 c15 -14 32 -26 39 -26 15 0 32 33 32 62 0 34 63 206 121 334 11 22 19 47 19 54 0 24 52 70 80 70 16 0 35 10 48 25 25 28 54 32 72 10z m350 -662 c0 -5 -9 -23 -20 -40 -15 -26 -27 -33 -50 -33 -38 0 -38 6 2 47 29 30 68 45 68 26z m-10 -262 c0 -6 -5 -13 -10 -16 -15 -9 -43 3 -35 15 8 13 45 13 45 1z m-25 -126 c0 -5 -17 -11 -37 -13 -30 -3 -38 0 -38 13 0 13 8 16 38 13 20 -2 37 -7 37 -13z m-307 -207 c-3 -7 -11 -13 -18 -13 -7 0 -15 6 -17 13 -3 7 4 12 17 12 13 0 20 -5 18 -12z m-1338 -31 c0 -17 -47 -43 -57 -33 -8 8 32 46 48 46 5 0 9 -6 9 -13z m-1028 -279 c42 -12 54 -27 44 -54 -5 -13 -14 -11 -63 15 -66 36 -98 39 -113 11 -14 -26 -46 -42 -70 -35 -18 6 -16 10 21 41 35 29 49 34 91 34 28 0 69 -5 90 -12z m106 -190 c3 -42 1 -48 -20 -53 -13 -3 -228 -4 -478 -3 l-455 3 -3 39 c-6 71 -43 66 480 64 l473 -3 3 -47z m957 -338 l0 -205 -2330 -3 c-1282 -1 -2340 0 -2352 3 -23 5 -23 7 -23 194 0 104 3 196 6 205 6 15 219 16 2353 14 l2346 -3 0 -205z m1505 -10 c0 -13 -7 -20 -20 -20 -19 0 -27 20 -13 33 13 14 33 6 33 -13z m-2422 -2314 c1 -1496 -1 -2032 -9 -2042 -10 -12 -178 -14 -1008 -12 l-996 3 -5 1560 -5 1560 -342 3 -343 2 0 23 c-1 46 -1 913 0 925 0 10 274 12 1353 10 l1352 -3 3 -2029z m2518 1999 c13 -14 34 -25 49 -25 17 0 36 -11 53 -31 43 -52 101 -89 139 -89 29 0 37 5 46 30 6 17 15 30 21 30 35 0 136 -99 136 -134 0 -22 -27 -20 -110 5 -55 16 -75 18 -105 10 -21 -5 -49 -8 -64 -5 -47 10 -133 77 -159 125 -12 24 -27 48 -32 53 -11 11 -14 56 -4 56 4 0 17 -11 30 -25z m1398 -58 c3 -34 8 -107 11 -162 3 -55 7 -138 10 -185 3 -51 0 -109 -7 -145 -13 -57 -14 -60 -51 -68 -22 -5 -42 -6 -47 -1 -4 5 -5 32 0 59 4 28 13 130 20 225 6 96 16 194 21 217 5 23 9 59 9 81 0 21 3 42 6 45 14 14 23 -6 28 -66z m127 -1056 c19 -22 57 -63 84 -93 28 -29 70 -76 93 -105 l43 -52 8 -133 c4 -73 5 -141 3 -150 -4 -16 -38 -17 -436 -20 -415 -3 -510 1 -441 17 17 4 44 13 62 21 17 8 37 14 44 14 27 0 220 61 264 84 17 9 70 55 118 104 100 101 108 118 106 247 -1 104 0 105 9 105 5 0 24 -18 43 -39z m-1771 -840 c0 -19 72 -53 123 -60 l52 -6 2 -95 c2 -52 0 -120 -3 -149 l-6 -55 -19 25 c-10 13 -22 35 -26 49 -7 30 -67 154 -94 195 -10 17 -24 40 -30 53 -7 12 -16 22 -21 22 -4 0 -8 7 -8 15 0 8 7 15 15 15 8 0 15 -4 15 -9z m2210 -41 c0 -6 -9 -29 -20 -50 -32 -63 -70 -76 -245 -86 -82 -5 -179 -8 -215 -6 -36 2 -155 -2 -265 -8 -146 -8 -214 -8 -250 0 -27 6 -92 15 -143 20 -78 8 -102 14 -148 42 -31 18 -66 38 -78 45 -12 7 -31 21 -41 33 l-18 20 711 0 c486 0 712 -3 712 -10z m-2330 -1574 c0 -51 -8 -78 -21 -70 -10 6 -12 58 -3 92 10 37 24 25 24 -22z m-1242 -578 c-4 -10 -482 -14 -2339 -16 -1284 -1 -2340 0 -2347 3 -7 3 -10 9 -7 15 10 16 4698 14 4693 -2z"/> </g> </svg> 