<?xml version="1.0" standalone="no"?>
<!DOCTYPE svg PUBLIC "-//W3C//DTD SVG 20010904//EN"
 "http://www.w3.org/TR/2001/REC-SVG-20010904/DTD/svg10.dtd">
<svg version="1.0" xmlns="http://www.w3.org/2000/svg"
 width="900.000000pt" height="945.000000pt" viewBox="0 0 900.000000 945.000000"
 preserveAspectRatio="xMidYMid meet">
<metadata>
Created by potrace 1.10, written by Peter Selinger 2001-2011
</metadata>
<g transform="translate(0.000000,945.000000) scale(0.100000,-0.100000)"
fill="#000000" stroke="none">
<path d="M4663 9318 c-11 -13 -23 -30 -27 -38 -3 -8 -17 -33 -29 -55 -31 -54
-77 -136 -122 -220 -21 -38 -46 -83 -56 -100 -10 -16 -30 -52 -44 -80 -14 -27
-34 -63 -44 -80 -9 -16 -35 -61 -56 -100 -38 -70 -79 -144 -121 -220 -34 -60
-46 -82 -103 -188 -81 -151 -145 -137 621 -137 422 0 646 4 659 10 20 11 26
49 10 65 -9 10 -45 77 -126 230 -26 50 -61 115 -77 145 -65 117 -87 158 -136
250 -27 52 -60 113 -72 135 -12 22 -45 83 -72 135 -154 292 -159 298 -205 248z
m48 -145 c16 -21 18 -24 91 -163 31 -58 64 -121 75 -140 11 -19 45 -82 75
-140 31 -58 72 -134 92 -170 20 -36 48 -87 62 -115 14 -27 47 -90 74 -140 27
-49 49 -98 50 -107 0 -17 -32 -18 -539 -18 -350 0 -542 4 -546 10 -5 9 48 116
106 215 10 17 27 48 39 70 44 80 113 204 166 300 13 22 32 58 44 80 22 39 47
86 107 195 17 30 41 74 53 98 25 47 31 50 51 25z"/>
<path d="M4675 8844 c-13 -14 -15 -41 -13 -186 3 -150 5 -172 21 -182 12 -8
22 -8 35 0 15 10 17 32 20 182 2 145 0 172 -13 186 -9 9 -20 16 -25 16 -5 0
-16 -7 -25 -16z"/>
<path d="M4688 8379 c-21 -12 -25 -78 -6 -97 19 -19 46 -14 64 13 17 26 13 55
-12 80 -18 17 -23 18 -46 4z"/>
<path d="M1875 8214 c-82 -21 -110 -40 -186 -128 -46 -52 -86 -109 -96 -136
-9 -25 -30 -67 -46 -93 l-29 -48 18 -36 c12 -22 35 -43 61 -56 39 -19 43 -19
67 -3 34 22 33 37 -6 75 -34 33 -32 42 13 65 13 6 39 39 59 73 50 87 135 169
184 178 50 10 110 -11 141 -47 69 -82 92 -219 57 -335 -11 -37 -23 -79 -26
-93 -4 -21 -9 -42 -32 -127 -3 -10 -71 -13 -302 -13 -218 0 -301 -3 -310 -12
-15 -15 -16 -347 -1 -402 6 -21 14 -59 19 -85 25 -142 124 -316 221 -387 53
-39 142 -74 187 -74 65 0 174 52 233 111 52 52 120 159 146 229 62 166 86 303
82 461 -4 127 -17 159 -65 159 -16 0 -25 7 -29 23 -7 25 7 156 25 246 10 45 8
68 -6 130 -9 42 -23 87 -29 101 -7 14 -21 42 -31 64 -25 50 -99 114 -160 137
-53 20 -127 31 -159 23z m363 -929 c7 -233 -77 -473 -208 -593 -43 -39 -117
-72 -160 -72 -143 0 -272 160 -334 412 -16 67 -24 347 -9 361 4 4 164 6 357 5
l351 -3 3 -110z"/>
<path d="M1855 7268 c-51 -28 -65 -50 -65 -101 0 -32 6 -57 16 -68 9 -10 20
-48 24 -86 14 -113 26 -130 80 -123 28 3 40 33 40 101 0 54 5 73 25 103 43 64
28 139 -36 172 -33 17 -57 17 -84 2z"/>
<path d="M7990 7638 c-12 -19 -15 -75 -16 -335 0 -246 -3 -315 -14 -328 -23
-28 -75 -43 -162 -47 l-83 -3 0 39 0 40 75 18 c96 24 119 48 120 130 0 31 5
69 11 85 12 29 29 295 21 326 -3 10 -14 17 -28 17 -40 0 -56 -58 -80 -293 -10
-93 -22 -160 -28 -162 -6 -1 -36 -7 -66 -13 -50 -9 -57 -8 -77 11 -32 29 -29
45 21 93 57 55 70 78 56 104 -15 29 -45 25 -70 -10 -20 -29 -60 -42 -60 -20 0
6 -12 15 -27 21 -47 18 -91 13 -132 -15 -20 -14 -43 -26 -50 -26 -8 0 -29 16
-47 36 -26 27 -41 35 -61 32 -46 -5 -41 -38 16 -106 53 -63 60 -85 37 -114
-31 -41 -165 -9 -181 43 -4 11 -4 108 -1 215 5 173 4 195 -11 201 -49 19 -60
-30 -64 -287 -4 -196 2 -213 75 -248 26 -13 67 -27 90 -30 31 -6 42 -12 44
-28 4 -26 -28 -34 -128 -34 -87 0 -96 10 -115 131 -8 52 -22 130 -30 174 -28
149 -39 240 -40 310 0 80 -18 97 -48 46 -14 -24 -17 -55 -17 -188 0 -89 7
-201 15 -257 8 -55 15 -112 15 -127 0 -51 44 -133 83 -157 43 -25 229 -43 241
-23 14 22 36 12 36 -18 0 -24 -6 -31 -37 -43 -22 -9 -55 -13 -77 -10 -52 6
-141 -15 -188 -44 -20 -13 -49 -41 -63 -61 -22 -33 -25 -48 -25 -122 0 -46 7
-134 15 -195 8 -61 18 -173 23 -249 10 -151 23 -185 56 -152 19 19 22 133 6
280 -5 50 -10 156 -12 237 -2 167 0 173 80 208 46 21 156 28 166 11 3 -5 -3
-19 -13 -32 -77 -99 -111 -212 -111 -370 1 -134 30 -293 59 -322 18 -19 23
-20 36 -7 12 13 13 30 4 110 -10 96 -3 277 11 301 7 10 11 10 24 0 9 -8 16
-19 16 -25 0 -23 76 -94 118 -110 56 -21 126 -20 165 2 66 36 106 74 127 120
12 26 26 55 31 65 5 10 10 53 10 97 1 93 11 101 56 43 65 -85 87 -177 119
-495 8 -75 31 -111 58 -89 33 28 23 352 -13 419 -6 11 -11 28 -11 37 0 32 -62
141 -106 186 -27 27 -62 51 -84 58 -22 6 -42 16 -46 22 -14 23 24 29 131 23
120 -7 138 -15 154 -68 9 -32 31 -215 51 -430 13 -133 20 -160 48 -175 17 -9
23 -6 37 15 15 23 15 41 5 182 -15 204 -37 376 -57 432 -9 25 -29 60 -46 77
l-30 32 -140 3 c-97 2 -142 7 -144 15 -7 20 35 34 125 40 120 8 167 33 206
110 13 27 16 68 15 265 -1 128 -4 276 -8 328 -5 85 -8 95 -26 98 -12 2 -26 -7
-35 -20z"/>
<path d="M4320 7629 c-19 -5 -60 -13 -90 -19 -161 -29 -354 -111 -525 -221
-170 -110 -406 -331 -547 -513 -192 -248 -374 -552 -503 -841 -15 -33 -34 -76
-43 -95 -21 -47 -37 -86 -57 -140 -9 -25 -23 -58 -30 -75 -16 -34 -55 -147
-86 -245 -12 -36 -27 -81 -34 -100 -12 -34 -30 -94 -59 -202 -8 -29 -22 -78
-30 -108 -8 -30 -21 -82 -29 -115 -8 -33 -21 -82 -27 -110 -7 -27 -16 -70 -20
-95 -4 -25 -12 -67 -18 -95 -45 -207 -86 -479 -116 -770 -56 -523 -56 -1217 0
-1740 27 -258 63 -507 89 -625 9 -36 15 -74 15 -85 0 -21 23 -128 46 -211 8
-28 14 -59 14 -69 0 -10 6 -41 14 -69 8 -28 22 -80 32 -116 30 -119 73 -265
90 -310 7 -19 16 -50 19 -68 7 -33 6 -35 -46 -46 -14 -3 -43 -22 -65 -43 -22
-21 -70 -63 -108 -93 -38 -30 -74 -60 -80 -66 -11 -10 -68 -56 -188 -152 -50
-39 -58 -50 -58 -79 0 -19 5 -33 13 -34 6 -1 1180 -2 2607 -3 2497 -1 2596 0
2613 17 17 17 17 21 3 42 -8 12 -77 87 -153 166 -77 79 -162 169 -190 199
l-52 55 -83 0 -83 0 3 35 c1 19 8 51 16 70 15 40 50 156 89 300 8 30 22 80 31
111 9 31 16 64 16 74 0 10 6 41 14 69 22 76 67 296 90 436 86 530 109 818 109
1405 0 477 -10 671 -48 960 -8 61 -15 124 -15 140 0 17 -7 71 -15 120 -9 50
-22 133 -31 185 -8 52 -21 128 -29 168 -32 158 -47 230 -61 285 -48 198 -72
291 -88 342 -7 22 -20 65 -29 95 -27 88 -84 260 -107 320 -12 30 -25 66 -30
80 -38 111 -92 235 -187 430 -181 369 -384 667 -615 901 -204 208 -334 306
-543 409 -144 71 -222 97 -395 131 -102 20 -342 25 -410 8z m465 -158 c284
-74 542 -231 779 -475 80 -83 204 -228 231 -271 11 -17 38 -55 60 -85 113
-150 308 -505 401 -727 20 -48 42 -101 49 -118 13 -29 30 -74 62 -160 8 -22
21 -55 29 -73 8 -18 14 -39 14 -47 0 -8 6 -29 14 -47 13 -30 49 -145 92 -298
47 -162 73 -273 118 -490 8 -41 22 -109 31 -150 8 -41 15 -86 15 -99 0 -13 7
-60 15 -105 58 -317 95 -820 95 -1271 0 -715 -81 -1380 -246 -2017 -44 -168
-131 -449 -147 -475 -6 -10 -76 -13 -293 -13 -303 0 -300 -1 -275 48 5 9 23
46 39 82 16 36 46 99 65 140 19 41 47 102 62 135 15 33 44 96 65 140 21 44 50
107 65 140 15 33 44 96 65 140 21 44 50 107 65 140 15 33 45 97 67 143 35 71
39 87 30 108 -7 13 -20 24 -29 25 -10 0 -38 1 -63 2 l-45 2 3 60 c1 33 5 211
8 395 5 275 3 360 -11 475 -27 232 -66 437 -121 631 -8 28 -14 59 -14 70 0 11
-6 28 -13 39 -7 11 -21 45 -31 75 -45 138 -159 392 -225 500 -11 19 -24 42
-28 50 -4 8 -36 58 -71 110 -188 276 -397 472 -636 599 -25 14 -46 30 -46 36
0 6 15 19 33 30 118 69 276 219 352 334 68 103 140 268 156 358 5 29 14 64 19
78 13 35 13 331 -1 375 -5 19 -14 55 -18 80 -12 62 -33 120 -81 220 -103 215
-298 406 -520 512 -175 83 -258 100 -480 102 -193 1 -207 -1 -370 -55 -192
-63 -415 -231 -538 -405 -46 -65 -131 -230 -143 -278 -4 -17 -12 -44 -17 -61
-45 -133 -58 -381 -27 -514 36 -155 107 -323 181 -426 101 -141 261 -285 374
-335 l25 -12 -30 -24 c-16 -13 -34 -24 -38 -24 -4 0 -45 -24 -90 -54 -288
-187 -534 -485 -720 -871 -54 -111 -67 -139 -92 -205 -9 -25 -22 -56 -27 -70
-34 -86 -95 -290 -122 -410 -35 -159 -45 -212 -60 -320 -42 -306 -53 -554 -35
-765 7 -88 14 -191 14 -230 l0 -70 -62 -3 c-94 -4 -97 -18 -35 -145 28 -56 62
-129 77 -162 15 -33 44 -96 65 -140 20 -44 47 -100 58 -125 11 -25 41 -90 67
-145 26 -55 56 -120 67 -145 29 -63 95 -204 129 -275 16 -33 29 -70 29 -83 l0
-22 -281 0 c-174 0 -288 4 -300 10 -10 6 -19 19 -19 30 0 11 -6 34 -14 52 -7
18 -21 60 -31 93 -10 33 -23 78 -30 100 -7 22 -20 69 -29 105 -10 36 -23 86
-31 111 -8 26 -15 55 -15 64 0 10 -6 41 -14 69 -16 57 -37 150 -61 276 -9 47
-23 117 -31 155 -8 39 -14 81 -14 94 0 13 -7 63 -15 110 -14 84 -33 244 -55
466 -44 441 -32 1287 26 1695 8 58 14 118 14 134 0 16 7 70 15 120 9 50 23
134 31 186 9 52 22 123 30 157 8 34 14 72 14 84 0 12 6 45 14 73 8 28 22 85
31 126 19 89 41 178 60 240 7 25 20 74 30 110 9 36 23 81 30 100 6 19 27 80
44 135 18 55 39 117 47 138 8 20 21 55 29 77 41 109 54 141 89 223 143 328
295 597 470 832 33 44 62 82 65 85 3 3 31 34 61 70 69 82 167 180 250 250 35
30 71 61 79 69 22 20 205 139 232 151 13 5 31 14 39 19 76 48 319 126 420 135
115 10 356 -3 435 -23z m-103 -2941 c180 -63 321 -197 385 -365 8 -22 21 -77
28 -123 48 -298 -133 -582 -433 -677 -38 -12 -87 -17 -171 -16 -118 0 -132 3
-246 49 -53 21 -173 111 -215 161 -43 50 -109 169 -110 197 0 12 -7 38 -15 57
-22 54 -20 225 4 302 26 81 40 110 82 175 85 130 245 236 399 261 71 12 231 1
292 -21z m-1541 -1027 c16 -74 45 -166 103 -320 81 -217 183 -391 288 -490 37
-35 144 -108 201 -137 31 -16 37 -24 37 -50 -1 -17 -12 -49 -25 -71 -14 -22
-28 -47 -32 -55 -19 -40 -38 -50 -91 -50 l-54 0 -94 94 c-52 52 -94 100 -94
107 0 7 -6 20 -14 28 -29 32 -137 255 -167 341 -4 14 -24 70 -44 125 -77 214
-102 337 -84 412 13 55 46 119 56 110 3 -4 9 -23 14 -44z m2778 -45 c31 -79
34 -108 22 -181 -13 -72 -20 -95 -61 -195 -45 -113 -183 -326 -301 -467 -10
-11 -41 -49 -71 -85 -86 -105 -164 -173 -196 -172 -38 1 -96 36 -110 68 -16
33 -15 125 0 161 13 30 56 72 74 73 14 0 175 167 244 252 209 259 320 430 355
546 3 12 13 22 21 22 8 0 18 -10 23 -22z m-1284 -243 c22 -8 49 -15 61 -15 11
0 29 -7 40 -15 10 -8 24 -15 31 -15 6 0 44 -19 85 -42 85 -49 264 -221 320
-308 l36 -55 -57 -55 c-43 -43 -60 -68 -73 -111 -25 -78 -24 -198 1 -248 24
-46 94 -111 121 -111 10 0 34 -7 53 -16 32 -15 36 -15 80 5 25 11 49 25 52 31
3 5 12 10 19 10 26 0 74 -237 78 -385 l3 -90 -990 0 -990 0 -3 40 c-2 22 3 80
12 130 8 49 17 110 21 134 10 75 17 81 91 81 74 0 95 12 202 114 85 81 94 111
70 232 -15 77 -41 119 -89 146 -61 34 -56 57 45 188 75 99 188 206 271 257 42
26 166 83 183 84 9 0 33 7 52 14 48 18 223 18 275 0z m1595 -1527 c0 -6 -20
-53 -44 -102 -46 -94 -108 -227 -144 -306 -11 -25 -41 -90 -67 -145 -26 -55
-55 -118 -65 -140 -20 -44 -64 -140 -117 -255 -19 -41 -44 -95 -54 -120 -11
-25 -26 -58 -33 -75 -8 -16 -42 -88 -76 -160 -34 -71 -71 -149 -81 -171 -12
-25 -28 -44 -42 -48 -41 -11 -2007 -7 -2027 4 -11 6 -31 36 -45 68 -34 75 -72
156 -129 273 -25 52 -46 98 -46 102 0 4 -18 46 -41 94 -47 102 -75 160 -119
258 -18 39 -49 106 -70 150 -21 44 -50 107 -65 140 -38 85 -89 192 -150 320
-29 60 -51 113 -49 117 3 5 783 8 1735 8 1330 0 1729 -3 1729 -12z m-2970
-1295 c18 -38 46 -96 62 -130 52 -108 115 -98 -612 -98 -508 0 -635 3 -635 13
0 7 72 73 160 147 l160 134 416 0 417 1 32 -67z m3526 -35 c54 -56 114 -117
132 -136 63 -65 90 -62 -622 -62 -457 0 -647 3 -652 11 -3 6 -2 21 4 32 5 12
24 54 42 92 56 123 65 140 74 153 6 9 111 12 466 12 l457 0 99 -102z"/>
<path d="M4391 1017 c-148 -73 -157 -280 -17 -362 62 -36 105 -41 167 -19 179
65 189 306 14 385 -53 24 -110 23 -164 -4z"/>
<path d="M888 5593 c-17 -21 -44 -68 -145 -253 -17 -30 -45 -82 -63 -115 -18
-33 -36 -64 -40 -70 -4 -5 -24 -41 -45 -80 -21 -38 -50 -92 -65 -120 -15 -27
-38 -68 -50 -90 -12 -22 -31 -58 -44 -80 -51 -92 -86 -154 -121 -220 -21 -38
-47 -83 -57 -100 -23 -38 -23 -58 0 -78 17 -15 77 -17 651 -17 417 0 639 4
652 10 26 14 24 48 -5 101 -13 24 -37 69 -53 99 -16 30 -49 91 -73 135 -63
115 -105 193 -134 250 -15 28 -48 91 -76 140 -27 50 -61 113 -75 140 -15 28
-41 77 -59 110 -18 33 -52 96 -75 140 -62 117 -88 138 -123 98z m62 -169 c62
-112 163 -297 194 -359 15 -27 48 -90 76 -140 27 -49 60 -112 74 -140 14 -27
42 -79 62 -115 93 -167 104 -191 99 -200 -7 -11 -1077 -14 -1088 -4 -3 3 2 20
12 37 10 18 37 68 61 112 24 44 51 94 61 110 10 17 27 48 39 70 12 22 35 64
51 93 16 28 42 76 58 105 16 28 39 70 51 92 12 22 29 54 39 70 10 17 35 62 56
100 114 211 112 208 129 202 5 -2 17 -17 26 -33z"/>
<path d="M900 5120 c-12 -7 -16 -37 -19 -140 -4 -162 3 -216 30 -231 16 -8 25
-7 40 7 17 15 19 32 19 179 0 144 -2 164 -18 178 -21 19 -31 21 -52 7z"/>
<path d="M907 4642 c-33 -36 -16 -92 28 -92 28 0 45 19 45 50 0 26 -26 60 -47
60 -5 0 -17 -8 -26 -18z"/>
<path d="M8200 5216 c-35 -8 -59 -25 -110 -76 -93 -93 -129 -140 -140 -183 -6
-20 -24 -57 -40 -81 -17 -24 -30 -52 -30 -62 1 -53 96 -113 141 -90 34 17 33
31 -6 74 l-36 40 38 19 c27 13 47 34 71 77 37 66 101 142 144 169 44 27 108
22 154 -11 39 -29 45 -38 80 -122 25 -59 25 -175 1 -255 -36 -115 -46 -150
-52 -182 l-7 -33 -293 0 c-161 0 -300 -3 -309 -6 -14 -5 -16 -31 -16 -186 0
-185 9 -250 52 -391 11 -37 25 -70 29 -73 5 -3 9 -12 9 -21 0 -24 90 -151 133
-189 79 -67 112 -79 217 -79 92 0 97 1 150 36 193 125 305 394 305 732 0 134
-1 139 -24 158 -13 10 -31 19 -41 19 -26 0 -46 62 -32 98 6 15 13 54 17 87 3
33 11 77 16 97 13 49 -12 158 -57 255 -36 76 -97 137 -160 160 -102 36 -124
38 -204 19z m398 -916 c7 -231 -69 -454 -197 -580 -91 -89 -149 -106 -247 -73
-109 37 -207 186 -258 395 -16 67 -24 347 -9 361 4 4 164 6 357 5 l351 -3 3
-105z"/>
<path d="M8215 4281 c-11 -5 -31 -21 -44 -35 -32 -34 -33 -109 -3 -152 12 -18
23 -54 27 -94 8 -81 26 -112 63 -108 36 4 52 39 52 113 0 46 6 69 25 100 13
22 25 53 25 68 0 30 -20 77 -42 94 -19 16 -80 24 -103 14z"/>
<path d="M1447 2842 c-15 -17 -17 -55 -17 -338 l0 -320 -40 -26 c-32 -20 -59
-27 -126 -33 -52 -4 -90 -3 -96 3 -5 5 -8 24 -6 43 3 30 7 34 43 41 139 27
148 37 160 158 4 41 13 101 21 133 10 37 14 95 12 165 -3 107 -3 107 -29 110
-20 2 -28 -3 -38 -25 -18 -38 -51 -262 -51 -344 0 -79 -9 -90 -83 -100 -103
-14 -127 37 -52 111 40 39 45 50 43 80 -4 48 -32 52 -67 9 l-28 -32 -44 21
c-59 29 -98 28 -144 -4 -46 -31 -75 -26 -107 16 -15 20 -30 30 -49 30 -54 0
-46 -47 20 -122 44 -49 50 -72 27 -103 -19 -26 -96 -23 -142 6 l-34 21 0 219
0 219 -24 0 c-14 0 -28 -5 -32 -11 -12 -20 -33 -241 -33 -343 0 -84 4 -106 21
-134 23 -37 110 -82 160 -82 32 0 47 -23 28 -45 -9 -11 -34 -15 -97 -15 -77 0
-86 2 -108 26 -18 19 -25 41 -29 92 -6 64 -20 147 -47 277 -7 33 -14 113 -16
178 -5 124 -12 137 -49 96 -18 -20 -19 -37 -17 -229 3 -219 25 -395 56 -457
24 -46 70 -68 172 -80 74 -9 95 -9 118 3 32 17 47 11 47 -16 0 -35 -46 -54
-134 -56 -93 -3 -130 -12 -180 -46 -74 -51 -81 -68 -79 -203 1 -66 9 -171 17
-233 9 -62 16 -159 16 -215 0 -67 4 -107 12 -115 19 -19 46 -14 53 9 8 25 -1
304 -16 486 -12 157 -5 178 75 216 57 27 158 38 170 18 4 -5 -12 -37 -35 -71
-73 -110 -82 -152 -76 -363 5 -200 21 -281 58 -292 11 -4 23 -4 27 -1 3 4 5
97 4 209 -2 111 1 208 6 215 7 10 17 0 41 -37 17 -28 42 -61 57 -73 35 -31
101 -57 145 -57 73 -2 167 59 206 133 33 60 53 131 53 183 0 28 4 54 9 57 21
13 90 -99 110 -179 5 -22 15 -58 20 -80 6 -22 11 -69 11 -105 1 -36 9 -105 19
-155 16 -83 19 -90 43 -93 25 -3 25 -2 31 80 16 238 -43 454 -154 566 -23 23
-48 42 -56 42 -21 0 -73 29 -73 41 0 6 47 9 126 7 122 -3 128 -4 145 -28 27
-36 49 -182 70 -458 10 -132 26 -182 60 -182 32 0 37 36 29 195 -16 309 -46
461 -100 512 -29 27 -33 28 -172 33 -100 4 -143 9 -146 17 -6 19 40 32 136 39
173 13 220 76 222 294 0 120 -17 441 -26 488 -5 27 -25 28 -47 4z"/>
<path d="M8010 2189 c-17 -29 -36 -61 -41 -73 -5 -12 -17 -34 -27 -51 -10 -16
-38 -66 -62 -110 -24 -44 -51 -93 -61 -110 -10 -16 -29 -52 -44 -80 -14 -27
-30 -57 -35 -65 -12 -19 -59 -101 -100 -176 -54 -97 -86 -157 -110 -199 -12
-22 -29 -53 -39 -70 -55 -94 -101 -186 -101 -202 0 -43 -6 -43 672 -43 l648 0
12 24 c11 26 11 27 -78 191 -18 33 -44 83 -58 110 -14 28 -42 79 -62 115 -41
74 -76 137 -120 218 -16 32 -50 93 -74 137 -67 122 -106 195 -134 250 -84 163
-99 185 -131 185 -17 0 -32 -14 -55 -51z m117 -190 c41 -77 69 -129 143 -264
15 -27 41 -75 57 -105 65 -119 97 -177 121 -220 13 -25 49 -92 79 -150 31 -58
59 -109 64 -115 5 -5 9 -17 9 -27 0 -17 -27 -18 -538 -18 -296 0 -541 3 -545
6 -5 6 16 51 62 129 10 17 35 62 56 100 21 39 50 93 65 120 15 28 38 68 50 90
12 22 30 54 40 70 11 17 26 44 34 60 8 17 28 53 44 80 16 28 48 86 72 130 24
44 52 94 62 110 10 17 23 41 29 55 11 27 29 41 43 37 5 -2 29 -41 53 -88z"/>
<path d="M8042 1748 c-8 -8 -12 -62 -12 -178 0 -170 4 -190 40 -190 9 0 24 8
33 18 24 26 25 306 1 340 -17 24 -43 29 -62 10z"/>
<path d="M8056 1281 c-40 -44 -4 -117 45 -91 29 16 24 89 -8 101 -15 5 -26 3
-37 -10z"/>
</g>
</svg>
