<?xml version="1.0" standalone="no"?>
<!DOCTYPE svg PUBLIC "-//W3C//DTD SVG 20010904//EN"
 "http://www.w3.org/TR/2001/REC-SVG-20010904/DTD/svg10.dtd">
<svg version="1.0" xmlns="http://www.w3.org/2000/svg"
 width="900.000000pt" height="627.000000pt" viewBox="0 0 900.000000 627.000000"
 preserveAspectRatio="xMidYMid meet">
<metadata>
Created by potrace 1.10, written by Peter Selinger 2001-2011
</metadata>
<g transform="translate(0.000000,627.000000) scale(0.100000,-0.100000)"
fill="#000000" stroke="none">
<path d="M1937 6051 c-21 -4 -43 -13 -50 -20 -6 -6 -17 -11 -24 -11 -17 0
-110 -68 -139 -101 -63 -72 -234 -371 -234 -410 0 -6 -6 -23 -14 -37 -21 -40
-46 -134 -46 -172 0 -18 -7 -58 -16 -89 -9 -31 -23 -81 -31 -111 -42 -149 -41
-147 -159 -255 -204 -186 -189 -179 -499 -250 -230 -53 -297 -78 -350 -129
-51 -49 -76 -97 -99 -189 -43 -178 -50 -204 -62 -232 -46 -111 -49 -138 -47
-444 1 -223 5 -311 17 -370 36 -170 48 -228 58 -266 6 -22 14 -56 19 -75 8
-40 20 -75 61 -180 49 -123 69 -162 109 -216 22 -28 39 -54 39 -58 0 -14 123
-210 168 -268 69 -89 155 -147 272 -183 118 -37 137 -43 195 -60 33 -10 71
-22 85 -28 14 -5 39 -13 55 -18 17 -4 62 -17 100 -28 39 -11 95 -21 125 -21
133 -1 334 35 402 71 16 9 25 6 47 -14 24 -23 67 -43 161 -76 175 -62 387 -58
521 9 24 12 58 26 74 30 107 29 200 80 232 129 27 40 53 121 53 165 0 76 26
121 94 164 89 56 185 173 211 259 22 73 16 231 -16 378 -10 45 -9 55 10 88 46
83 61 147 67 292 5 114 2 150 -11 195 -25 82 -30 138 -13 158 35 42 62 158 74
311 5 71 3 99 -14 159 -45 159 -124 238 -297 295 -40 14 -89 17 -235 17 -133
0 -202 4 -243 15 -32 8 -70 15 -86 15 -15 0 -52 7 -81 16 -30 9 -82 16 -115
16 -64 0 -104 19 -137 63 -10 13 -23 67 -33 130 -14 95 -14 114 -1 159 8 28
21 94 31 146 26 148 36 179 118 350 78 166 80 170 81 288 0 87 -3 118 -19 153
-21 47 -93 149 -105 149 -4 0 -36 21 -70 46 -56 41 -68 46 -128 49 -37 2 -84
0 -105 -4z m172 -362 c6 -18 11 -73 11 -124 0 -93 -15 -148 -55 -200 -9 -11
-20 -38 -26 -60 -6 -22 -16 -46 -22 -54 -17 -20 -77 -144 -77 -158 0 -7 -6
-27 -14 -45 -19 -46 -43 -156 -57 -269 -10 -82 -10 -110 4 -192 24 -146 72
-236 160 -302 55 -40 88 -54 167 -71 141 -30 332 -6 426 53 18 11 52 11 210
-2 124 -11 197 -21 211 -30 12 -8 31 -36 42 -61 12 -25 35 -62 52 -82 28 -31
31 -41 27 -81 -6 -61 -71 -194 -122 -249 -54 -59 -153 -136 -212 -166 -54 -27
-134 -54 -234 -80 -36 -10 -87 -23 -115 -30 -27 -8 -84 -20 -125 -29 -321 -67
-451 -72 -492 -16 -11 14 -22 50 -25 80 l-5 56 43 35 c48 39 83 58 147 82 94
36 128 49 157 62 17 7 48 20 70 30 59 25 75 42 75 83 0 25 -8 43 -24 59 -64
60 -340 -8 -522 -130 -103 -69 -174 -185 -174 -284 0 -76 46 -169 112 -229
l51 -46 -31 -42 c-18 -23 -48 -75 -69 -116 -33 -67 -36 -82 -36 -150 2 -95 26
-144 114 -224 l60 -56 -35 -36 c-109 -108 -53 -274 123 -366 23 -12 40 -26 39
-31 -2 -6 -21 -16 -42 -23 -20 -7 -45 -20 -54 -28 -24 -22 -148 -41 -181 -28
-14 5 -80 12 -146 15 -90 4 -134 10 -175 26 -30 12 -68 25 -85 29 -29 8 -82
26 -155 54 -63 23 -98 46 -105 68 -7 22 -76 58 -111 59 -12 0 -40 14 -62 30
-23 17 -53 30 -66 30 -33 0 -69 35 -88 85 -45 117 -49 142 -51 296 -1 85 1
162 5 171 5 13 20 4 76 -50 112 -107 273 -174 360 -150 51 14 102 70 102 111
0 70 -71 167 -122 167 -17 0 -29 4 -138 51 -60 27 -130 89 -130 117 0 10 -6
38 -14 63 -45 146 -48 165 -48 278 1 139 18 194 84 279 24 31 80 84 124 117
43 32 99 82 123 109 24 28 74 83 110 121 113 118 187 224 282 404 53 99 53
100 104 176 38 57 58 97 92 190 8 22 21 55 29 73 8 18 14 36 14 41 0 12 38 91
60 126 28 43 50 95 57 130 12 70 39 133 77 185 23 30 50 69 61 85 29 48 101
94 147 95 20 0 28 -7 37 -31z m1022 -2239 c16 -58 9 -98 -32 -180 -47 -93 -87
-142 -170 -206 -56 -43 -192 -119 -239 -135 -14 -4 -50 -17 -80 -29 -30 -12
-125 -33 -210 -46 -85 -12 -171 -28 -190 -34 -55 -17 -221 -24 -250 -11 -66
31 -104 64 -119 105 -9 23 -7 36 14 77 33 66 83 130 135 174 40 34 45 35 122
35 152 0 527 63 626 106 18 8 40 14 48 14 9 0 28 6 42 14 15 7 61 30 102 50
81 40 102 52 139 79 32 23 53 18 62 -13z m-27 -595 c8 -22 -3 -164 -16 -200
-17 -47 -56 -93 -101 -122 -52 -33 -131 -72 -165 -83 -15 -5 -52 -18 -82 -30
-129 -51 -282 -75 -475 -75 -115 0 -136 3 -180 23 -139 65 -175 92 -175 129 0
22 33 79 55 95 6 4 55 8 109 8 58 0 125 7 160 16 34 8 86 22 117 30 30 8 84
14 120 14 109 0 371 96 494 181 47 33 128 41 139 14z m-365 -678 c-26 -49 -36
-57 -111 -94 -160 -79 -194 -87 -367 -86 -136 1 -156 3 -168 19 -17 23 -16 53
2 84 8 14 18 34 24 46 9 20 20 21 194 28 162 6 410 36 425 51 3 3 11 5 18 5 7
0 1 -20 -17 -53z"/>
<path d="M6500 4524 c-14 -3 -79 -26 -145 -51 -66 -25 -140 -53 -164 -62 -94
-35 -171 -146 -171 -247 0 -23 -9 -63 -20 -90 -17 -39 -30 -55 -68 -76 -53
-30 -145 -122 -184 -183 -22 -36 -36 -77 -52 -157 -6 -28 16 -217 35 -304 10
-47 9 -54 -13 -90 -52 -85 -62 -137 -62 -314 -1 -135 2 -173 17 -208 23 -57
22 -75 -9 -141 -34 -71 -53 -160 -61 -283 -14 -224 79 -377 274 -449 49 -18
92 -22 273 -29 235 -10 327 -21 483 -61 20 -6 52 -7 70 -4 28 6 39 1 79 -34
l46 -41 12 -99 c14 -104 11 -143 -15 -256 -9 -38 -20 -97 -25 -130 -10 -65
-28 -120 -66 -200 -13 -29 -24 -55 -24 -58 0 -3 -12 -28 -28 -54 -52 -91 -66
-148 -66 -269 -1 -91 3 -118 19 -150 39 -76 113 -163 141 -164 5 0 23 -13 38
-29 15 -16 38 -31 49 -34 12 -3 39 -10 61 -16 30 -7 53 -5 105 8 137 38 205
93 307 251 126 197 194 357 214 505 10 74 25 138 45 195 7 19 20 61 29 93 19
64 45 93 229 251 105 90 122 98 312 141 44 10 103 23 130 31 28 7 79 20 115
30 109 28 149 47 195 92 65 63 89 121 116 271 5 30 20 82 33 115 59 153 61
169 59 476 -3 288 -5 309 -50 515 -42 191 -62 268 -89 330 -6 17 -20 50 -29
75 -28 73 -75 163 -99 190 -13 14 -35 49 -50 79 -49 95 -152 245 -209 302 -61
60 -126 96 -233 130 -38 11 -87 27 -109 34 -22 7 -67 20 -100 30 -33 10 -76
23 -95 30 -142 50 -140 50 -296 48 -148 -2 -264 -21 -323 -52 -30 -17 -49 -13
-86 15 -19 14 -78 41 -132 60 -90 32 -109 35 -243 39 -80 2 -156 2 -170 -1z
m373 -229 c31 -13 32 -53 3 -111 l-28 -54 -141 0 c-149 0 -351 -21 -427 -45
-25 -8 -48 -11 -53 -6 -4 4 3 27 16 52 21 39 34 49 127 96 58 29 114 53 125
53 11 1 36 8 55 16 26 10 70 13 170 10 74 -2 143 -7 153 -11z m572 -144 c66
-5 127 -11 135 -14 8 -3 62 -19 120 -37 187 -57 262 -91 281 -126 15 -29 57
-54 91 -54 13 0 48 -16 78 -35 30 -19 64 -35 75 -35 47 0 82 -54 119 -181 19
-67 24 -379 5 -379 -6 0 -22 14 -36 30 -38 45 -130 113 -198 145 -46 22 -78
30 -138 33 l-77 4 -40 -40 c-35 -34 -40 -46 -40 -85 0 -27 6 -49 15 -57 8 -7
15 -20 15 -29 0 -31 60 -66 155 -90 27 -7 51 -18 95 -43 8 -4 25 -12 36 -17
26 -11 61 -55 69 -84 12 -47 38 -134 51 -177 23 -73 19 -262 -7 -339 -24 -72
-104 -165 -200 -235 -31 -23 -85 -73 -120 -111 -35 -39 -83 -90 -107 -115 -46
-47 -182 -224 -182 -236 0 -4 -6 -15 -14 -23 -8 -9 -38 -61 -66 -116 -29 -55
-72 -129 -95 -165 -64 -98 -84 -135 -110 -214 -29 -90 -82 -214 -105 -246 -24
-35 -60 -119 -60 -142 0 -33 -39 -131 -63 -157 -13 -14 -40 -52 -60 -83 -40
-62 -93 -104 -144 -114 -49 -10 -62 20 -65 142 l-2 100 48 99 c26 55 55 114
63 130 50 96 63 126 80 180 58 179 79 352 59 475 -32 199 -107 302 -261 362
-53 20 -78 23 -205 23 -150 0 -164 -3 -267 -52 -28 -14 -58 -15 -187 -10 -124
5 -261 25 -271 39 -1 2 -12 26 -25 53 -13 28 -36 65 -52 83 -47 55 -36 125 40
256 37 63 87 115 172 181 52 40 177 105 201 105 6 0 32 7 58 14 46 15 117 34
201 56 47 12 84 19 190 39 36 7 97 19 135 27 39 8 107 14 153 14 80 0 84 -1
112 -31 29 -32 47 -102 35 -138 -3 -11 -20 -30 -38 -44 -41 -31 -146 -87 -163
-87 -13 0 -68 -22 -108 -42 -11 -6 -44 -19 -75 -29 -30 -11 -65 -29 -78 -41
-31 -29 -31 -87 -2 -114 33 -29 183 -23 275 12 38 14 78 28 88 31 10 4 44 19
75 36 170 90 270 224 259 349 -6 74 -52 162 -110 211 -27 22 -48 44 -48 49 0
5 13 26 29 46 16 20 46 69 65 109 32 63 36 80 36 148 0 96 -26 151 -104 223
-31 28 -56 56 -56 62 0 7 15 30 34 51 91 107 36 258 -126 346 -51 28 -63 53
-25 53 13 0 44 13 69 29 47 30 104 42 163 34 17 -2 84 -7 150 -12z m-560 -213
c17 -8 48 -24 70 -34 61 -29 115 -73 115 -95 0 -11 -11 -37 -24 -58 l-25 -38
-103 -5 c-57 -3 -125 -11 -153 -18 -27 -6 -75 -18 -105 -26 -30 -7 -89 -15
-130 -18 -135 -8 -331 -75 -480 -165 -51 -31 -89 -46 -122 -49 -44 -4 -47 -3
-54 23 -4 15 -4 60 0 101 9 99 40 158 109 205 53 36 150 85 197 100 14 4 50
17 80 29 56 21 219 56 300 63 105 10 295 1 325 -15z m180 -473 c58 -39 81 -79
70 -122 -11 -45 -70 -135 -122 -184 l-48 -47 -120 -11 c-403 -39 -568 -74
-738 -157 -16 -8 -33 -14 -38 -14 -5 0 -51 -25 -101 -55 -50 -30 -97 -55 -103
-55 -14 0 -25 44 -25 96 0 45 78 201 123 246 62 63 160 132 237 168 25 12 54
26 64 32 11 6 31 14 45 19 14 4 58 19 96 33 39 14 90 26 115 26 53 0 208 27
265 45 22 8 82 14 133 14 91 1 95 0 147 -34z"/>
</g>
</svg>
